# xmcd CD database file
#
# Track frame offsets:
#	150
#	23672
#	48088
#	69644
#	92924
#	115231
#	140438
#	161729
#	187731
#	207664
#	227857
#	253097
#	279236
#	299716
#	324073
#
# Disc length: 4681 seconds
#
# Revision: 0
# Processed by: cddbd v1.5.2PL0 Copyright (c) Steve Scherf et al.
# Submitted via: CDex 1.70beta2
#
DISCID=d912470f
DTITLE=Orquesta Guayacan - V.I.P. Edition
DYEAR=2007
DGENRE=Salsa
TTITLE0=Invierno En Primavera
TTITLE1=Oiga Mire Vea
TTITLE2=Amor Traicionero
TTITLE3=Como Una Hoguera
TTITLE4=Cada Dia Que Pasa
TTITLE5=Un Vestido Bonito
TTITLE6=Me Amas Y Me Dejas
TTITLE7=Cocorobe
TTITLE8=Cuanto Te Quiero Cuanto Te Amo
TTITLE9=Toreo
TTITLE10=Te Amo Te Extraño
TTITLE11=Muchachita
TTITLE12=Si Tu No Estas
TTITLE13=Yolanda
TTITLE14=Guayacan Pasodobles
EXTD=YEAR: 2007
EXTT0=
EXTT1=
EXTT2=
EXTT3=
EXTT4=
EXTT5=
EXTT6=
EXTT7=
EXTT8=
EXTT9=
EXTT10=
EXTT11=
EXTT12=
EXTT13=
EXTT14=
PLAYORDER=
